<svg width="6" height="7" viewBox="0 0 6 7" fill="none" xmlns="http://www.w3.org/2000/svg">
<path d="M3 6.5C2.40666 6.5 1.82664 6.32405 1.33329 5.99441C0.839943 5.66477 0.455426 5.19623 0.228363 4.64805C0.00129984 4.09987 -0.0581101 3.49667 0.0576455 2.91473C0.173401 2.33279 0.459123 1.79824 0.878681 1.37868C1.29824 0.959123 1.83279 0.673401 2.41473 0.557646C2.99667 0.44189 3.59987 0.5013 4.14805 0.728363C4.69623 0.955426 5.16477 1.33994 5.49441 1.83329C5.82405 2.32664 6 2.90666 6 3.5C6 4.29565 5.68393 5.05871 5.12132 5.62132C4.55871 6.18393 3.79565 6.5 3 6.5ZM3 1C2.50555 1 2.0222 1.14662 1.61108 1.42133C1.19995 1.69603 0.879522 2.08648 0.690302 2.54329C0.501083 3.00011 0.451575 3.50277 0.548038 3.98773C0.644501 4.47268 0.882603 4.91814 1.23223 5.26777C1.58187 5.6174 2.02732 5.8555 2.51228 5.95196C2.99723 6.04843 3.49989 5.99892 3.95671 5.8097C4.41353 5.62048 4.80397 5.30005 5.07868 4.88893C5.35338 4.4778 5.5 3.99445 5.5 3.5C5.5 2.83696 5.23661 2.20108 4.76777 1.73223C4.29893 1.26339 3.66304 1 3 1Z" fill="#1E3A8A"/>
<path d="M1.99978 4.75011C1.96693 4.75027 1.93439 4.74386 1.90405 4.73127C1.87371 4.71867 1.84619 4.70015 1.82311 4.67678C1.7763 4.6299 1.75 4.56636 1.75 4.50011C1.75 4.43386 1.7763 4.37032 1.82311 4.32345L3.82311 2.32345C3.87051 2.27929 3.93319 2.25524 3.99795 2.25639C4.06272 2.25753 4.12452 2.28377 4.17032 2.32957C4.21613 2.37538 4.24236 2.43717 4.24351 2.50194C4.24465 2.5667 4.22061 2.62939 4.17645 2.67678L2.17645 4.67678C2.15337 4.70015 2.12585 4.71867 2.09551 4.73127C2.06517 4.74386 2.03263 4.75027 1.99978 4.75011Z" fill="#1E3A8A"/>
<path d="M3.99962 4.75011C3.96678 4.75027 3.93423 4.74386 3.90389 4.73127C3.87356 4.71867 3.84604 4.70015 3.82296 4.67678L1.82296 2.67678C1.7788 2.62939 1.75476 2.5667 1.7559 2.50194C1.75704 2.43717 1.78328 2.37538 1.82908 2.32957C1.87489 2.28377 1.93668 2.25753 2.00145 2.25639C2.06622 2.25524 2.1289 2.27929 2.17629 2.32345L4.17629 4.32345C4.22311 4.37032 4.2494 4.43386 4.2494 4.50011C4.2494 4.56636 4.22311 4.6299 4.17629 4.67678C4.15321 4.70015 4.12569 4.71867 4.09535 4.73127C4.06502 4.74386 4.03247 4.75027 3.99962 4.75011Z" fill="#1E3A8A"/>
</svg>
