<svg width="19" height="19" viewBox="0 0 19 19" fill="none" xmlns="http://www.w3.org/2000/svg">
<path d="M9.43147 12.6367C8.85197 12.6367 8.28548 12.4649 7.80365 12.1429C7.32181 11.821 6.94626 11.3634 6.7245 10.828C6.50273 10.2926 6.44471 9.70349 6.55777 9.13512C6.67082 8.56676 6.94988 8.04468 7.35964 7.63491C7.76941 7.22514 8.29149 6.94609 8.85985 6.83303C9.42822 6.71998 10.0173 6.778 10.5527 6.99977C11.0881 7.22153 11.5457 7.59708 11.8677 8.07891C12.1896 8.56075 12.3615 9.12724 12.3615 9.70673C12.3615 10.4838 12.0528 11.2291 11.5033 11.7786C10.9538 12.328 10.2086 12.6367 9.43147 12.6367ZM9.43147 8.27673C9.14864 8.27673 8.87216 8.3606 8.637 8.51773C8.40184 8.67486 8.21855 8.8982 8.11032 9.1595C8.00209 9.4208 7.97377 9.70832 8.02894 9.98571C8.08412 10.2631 8.22031 10.5179 8.4203 10.7179C8.62029 10.9179 8.87509 11.0541 9.15249 11.1093C9.42988 11.1644 9.71741 11.1361 9.9787 11.0279C10.24 10.9196 10.4633 10.7364 10.6205 10.5012C10.7776 10.266 10.8615 9.98956 10.8615 9.70673C10.8615 9.32748 10.7108 8.96375 10.4426 8.69557C10.1745 8.4274 9.81073 8.27673 9.43147 8.27673Z" fill="#FFFBF8"/>
<path d="M9.49141 18.4568C9.19902 18.4555 8.90978 18.3964 8.64028 18.283C8.37078 18.1696 8.12634 18.0041 7.92099 17.796C7.71564 17.5878 7.55343 17.3412 7.44367 17.0702C7.33391 16.7992 7.27877 16.5092 7.28141 16.2168C7.27746 16.1266 7.24815 16.0393 7.19686 15.965C7.14556 15.8908 7.07435 15.8324 6.99141 15.7968C6.89964 15.7547 6.79743 15.7407 6.69774 15.7568C6.59805 15.7728 6.50535 15.818 6.43141 15.8868C6.01622 16.2988 5.45633 16.5321 4.87141 16.5368C4.28279 16.5406 3.71593 16.3145 3.29141 15.9068C3.08519 15.7006 2.92161 15.4559 2.81001 15.1865C2.6984 14.9171 2.64096 14.6284 2.64096 14.3368C2.64096 14.0452 2.6984 13.7565 2.81001 13.4871C2.92161 13.2177 3.08519 12.9729 3.29141 12.7668C3.36193 12.7025 3.41259 12.6194 3.43739 12.5272C3.4622 12.4351 3.46012 12.3378 3.43141 12.2468C3.38268 12.1624 3.31277 12.0922 3.22859 12.043C3.1444 11.9939 3.04886 11.9677 2.95141 11.9668C2.36303 11.9645 1.79854 11.7338 1.37693 11.3234C0.955325 10.913 0.709546 10.3549 0.691406 9.76679C0.692717 9.47525 0.751437 9.18683 0.864214 8.91799C0.976992 8.64915 1.14162 8.40515 1.34869 8.19993C1.55577 7.99471 1.80124 7.83229 2.07108 7.72194C2.34093 7.61159 2.62987 7.55547 2.92141 7.55679C3.0116 7.55284 3.09885 7.52353 3.17315 7.47224C3.24744 7.42094 3.30576 7.34973 3.34141 7.26679C3.38353 7.17502 3.39746 7.07281 3.38143 6.97312C3.36541 6.87343 3.32016 6.78074 3.25141 6.70679C2.83937 6.2916 2.60608 5.73171 2.60141 5.14679C2.59629 4.85479 2.64937 4.56471 2.75753 4.29344C2.86569 4.02217 3.02678 3.77515 3.23141 3.56679C3.43756 3.36057 3.68232 3.19699 3.9517 3.08539C4.22109 2.97378 4.50982 2.91634 4.80141 2.91634C5.09299 2.91634 5.38172 2.97378 5.65111 3.08539C5.92049 3.19699 6.16525 3.36057 6.37141 3.56679C6.44341 3.63529 6.5318 3.68414 6.62811 3.70865C6.72442 3.73317 6.82542 3.73253 6.92141 3.70679C7.00891 3.65886 7.08309 3.58987 7.13721 3.50606C7.19134 3.42225 7.22372 3.32626 7.23141 3.22679C7.23113 2.63668 7.46065 2.06966 7.87134 1.64591C8.28202 1.22215 8.84158 0.974984 9.43141 0.956787C9.72294 0.959402 10.0111 1.01942 10.2795 1.1334C10.5478 1.24739 10.7911 1.41312 10.9954 1.62113C11.1996 1.82913 11.361 2.07534 11.4701 2.34569C11.5792 2.61605 11.634 2.90525 11.6314 3.19679C11.6352 3.28829 11.6631 3.37717 11.7123 3.45443C11.7614 3.53169 11.8301 3.5946 11.9114 3.63679C11.9997 3.66919 12.0953 3.67606 12.1872 3.6566C12.2792 3.63715 12.3638 3.59215 12.4314 3.52679C12.8466 3.11475 13.4065 2.88146 13.9914 2.87679C14.2839 2.86762 14.5752 2.91883 14.847 3.02722C15.1189 3.13562 15.3655 3.29887 15.5714 3.50679C15.7776 3.71294 15.9412 3.9577 16.0528 4.22708C16.1644 4.49647 16.2219 4.7852 16.2219 5.07679C16.2219 5.36837 16.1644 5.65711 16.0528 5.92649C15.9412 6.19587 15.7776 6.44063 15.5714 6.64679C15.5081 6.72168 15.4647 6.81142 15.4455 6.90761C15.4263 7.00379 15.4317 7.10329 15.4614 7.19679C15.5093 7.28429 15.5783 7.35847 15.6621 7.4126C15.7459 7.46672 15.8419 7.4991 15.9414 7.50679C16.5263 7.51424 17.0858 7.7472 17.5031 8.15708C17.9204 8.56695 18.1634 9.12211 18.1814 9.70679C18.1788 9.99833 18.1188 10.2865 18.0048 10.5548C17.8908 10.8232 17.7251 11.0664 17.5171 11.2707C17.3091 11.475 17.0629 11.6363 16.7925 11.7455C16.5221 11.8546 16.2329 11.9094 15.9414 11.9068C15.8499 11.9106 15.761 11.9385 15.6838 11.9876C15.6065 12.0368 15.5436 12.1055 15.5014 12.1868C15.469 12.275 15.4621 12.3706 15.4816 12.4626C15.501 12.5546 15.546 12.6392 15.6114 12.7068C16.0234 13.122 16.2567 13.6819 16.2614 14.2668C16.2665 14.5588 16.2134 14.8489 16.1053 15.1201C15.9971 15.3914 15.836 15.6384 15.6314 15.8468C15.4253 16.053 15.1805 16.2166 14.9111 16.3282C14.6417 16.4398 14.353 16.4972 14.0614 16.4972C13.7698 16.4972 13.4811 16.4398 13.2117 16.3282C12.9423 16.2166 12.6976 16.053 12.4914 15.8468C12.4238 15.7814 12.3392 15.7364 12.2472 15.717C12.1553 15.6975 12.0597 15.7044 11.9714 15.7368C11.887 15.7855 11.8168 15.8554 11.7677 15.9396C11.7186 16.0238 11.6923 16.1193 11.6914 16.2168C11.684 16.8017 11.451 17.3611 11.0411 17.7785C10.6312 18.1958 10.0761 18.4388 9.49141 18.4568ZM6.78141 14.2468C7.04664 14.2437 7.30937 14.2983 7.55141 14.4068C7.90858 14.5557 8.2149 14.805 8.43323 15.1245C8.65155 15.444 8.7725 15.8199 8.78141 16.2068C8.77864 16.3997 8.85131 16.586 8.98394 16.7261C9.11656 16.8662 9.29865 16.949 9.49141 16.9568C9.68414 16.9415 9.86381 16.8534 9.99386 16.7104C10.1239 16.5673 10.1946 16.3801 10.1914 16.1868C10.1938 15.7986 10.3058 15.4189 10.5146 15.0916C10.7234 14.7643 11.0204 14.5026 11.3714 14.3368C11.7366 14.1849 12.1386 14.1447 12.5266 14.2212C12.9146 14.2977 13.2713 14.4876 13.5514 14.7668C13.684 14.8994 13.8639 14.9739 14.0514 14.9739C14.2389 14.9739 14.4188 14.8994 14.5514 14.7668C14.684 14.6342 14.7585 14.4543 14.7585 14.2668C14.7585 14.0793 14.684 13.8994 14.5514 13.7668C14.2739 13.4855 14.0859 13.1284 14.0112 12.7404C13.9364 12.3524 13.9782 11.951 14.1314 11.5868C14.2891 11.2359 14.5447 10.9379 14.8675 10.7286C15.1904 10.5193 15.5667 10.4076 15.9514 10.4068C16.1416 10.4096 16.3255 10.3379 16.4637 10.2072C16.6019 10.0764 16.6836 9.89689 16.6914 9.70679C16.6786 9.51316 16.5911 9.33205 16.4476 9.20152C16.304 9.07099 16.1154 9.00119 15.9214 9.00679C15.53 8.99614 15.1493 8.87626 14.8224 8.66068C14.4955 8.4451 14.2354 8.1424 14.0714 7.78679C13.9217 7.41793 13.8827 7.01348 13.9591 6.62281C14.0354 6.23214 14.2239 5.87215 14.5014 5.58679C14.5671 5.52113 14.6192 5.44318 14.6547 5.35739C14.6902 5.2716 14.7085 5.17965 14.7085 5.08679C14.7085 4.99393 14.6902 4.90198 14.6547 4.81619C14.6192 4.7304 14.5671 4.65245 14.5014 4.58679C14.4357 4.52113 14.3578 4.46904 14.272 4.43351C14.1862 4.39797 14.0943 4.37968 14.0014 4.37968C13.9085 4.37968 13.8166 4.39797 13.7308 4.43351C13.645 4.46904 13.5671 4.52113 13.5014 4.58679C13.2203 4.84792 12.8699 5.02266 12.4922 5.09016C12.1145 5.15767 11.7253 5.11509 11.3711 4.96751C11.0169 4.81993 10.7126 4.57357 10.4946 4.25783C10.2766 3.94209 10.154 3.57029 10.1414 3.18679C10.1442 2.99654 10.0726 2.81274 9.9418 2.67452C9.81106 2.5363 9.63151 2.45459 9.44141 2.44679C9.24778 2.45964 9.06667 2.54705 8.93614 2.69063C8.8056 2.83422 8.73581 3.02282 8.74141 3.21679C8.73076 3.60823 8.61088 3.98891 8.3953 4.31581C8.17972 4.64272 7.87702 4.90284 7.52141 5.06679C7.15255 5.21645 6.7481 5.25548 6.35743 5.17912C5.96676 5.10276 5.60677 4.91432 5.32141 4.63679C5.25575 4.57113 5.17779 4.51904 5.092 4.48351C5.00621 4.44797 4.91427 4.42968 4.82141 4.42968C4.72855 4.42968 4.6366 4.44797 4.55081 4.48351C4.46502 4.51904 4.38707 4.57113 4.32141 4.63679C4.25575 4.70245 4.20366 4.7804 4.16812 4.86619C4.13259 4.95198 4.1143 5.04393 4.1143 5.13679C4.1143 5.22965 4.13259 5.3216 4.16812 5.40739C4.20366 5.49318 4.25575 5.57113 4.32141 5.63679C4.59725 5.91914 4.78337 6.27681 4.85633 6.66474C4.92929 7.05267 4.88582 7.45351 4.73141 7.81679C4.58253 8.17397 4.33323 8.48028 4.01373 8.69861C3.69424 8.91693 3.31827 9.03788 2.93141 9.04679C2.73851 9.04402 2.55216 9.11669 2.41207 9.24932C2.27197 9.38194 2.18921 9.56403 2.18141 9.75679C2.19664 9.94952 2.28476 10.1292 2.42781 10.2592C2.57086 10.3893 2.7581 10.4599 2.95141 10.4568C3.33963 10.4592 3.71928 10.5712 4.04659 10.78C4.37391 10.9887 4.63557 11.2858 4.80141 11.6368C4.95331 12.002 4.99354 12.404 4.917 12.792C4.84047 13.18 4.6506 13.5367 4.37141 13.8168C4.30575 13.8824 4.25366 13.9604 4.21812 14.0462C4.18259 14.132 4.1643 14.2239 4.1643 14.3168C4.1643 14.4096 4.18259 14.5016 4.21812 14.5874C4.25366 14.6732 4.30575 14.7511 4.37141 14.8168C4.43707 14.8824 4.51502 14.9345 4.60081 14.9701C4.6866 15.0056 4.77855 15.0239 4.87141 15.0239C4.96427 15.0239 5.05621 15.0056 5.142 14.9701C5.22779 14.9345 5.30575 14.8824 5.37141 14.8168C5.7515 14.4539 6.25591 14.25 6.78141 14.2468Z" fill="#FFFBF8"/>
</svg>
