<svg width="12" height="12" viewBox="0 0 12 12" fill="none" xmlns="http://www.w3.org/2000/svg">
<path d="M1.03948 11.7353C0.97858 11.7359 0.918154 11.7245 0.86168 11.7017C0.805207 11.6789 0.7538 11.6451 0.710419 11.6024C0.660682 11.5533 0.622413 11.4938 0.598346 11.4281C0.574279 11.3625 0.56501 11.2923 0.5712 11.2227L0.767372 8.7927C0.775784 8.67986 0.825323 8.57402 0.906591 8.49528L7.9055 1.49637C8.29547 1.13119 8.8143 0.935486 9.34831 0.952156C9.87884 0.956272 10.3879 1.16216 10.7721 1.52802C11.1407 1.90644 11.3526 2.41013 11.3655 2.93819C11.3784 3.46625 11.1913 3.97969 10.8417 4.37567L3.83651 11.4062C3.75811 11.4843 3.65545 11.5334 3.54542 11.5454L1.08378 11.7669L1.03948 11.7353ZM1.67229 9.0395L1.5394 10.7734L3.27331 10.6152L10.171 3.70489C10.3054 3.54572 10.3914 3.3513 10.4187 3.14471C10.4459 2.93812 10.4133 2.72806 10.3246 2.53947C10.236 2.35088 10.0951 2.1917 9.91868 2.08083C9.74224 1.96996 9.53769 1.91207 9.32933 1.91403C9.19237 1.90533 9.05508 1.92439 8.92568 1.97007C8.79627 2.01574 8.67743 2.08708 8.57628 2.17981V2.17981L1.67229 9.0395Z" fill="#00A6CB"/>
</svg>
