<svg width="14" height="12" viewBox="0 0 14 12" fill="none" xmlns="http://www.w3.org/2000/svg">
<path d="M12.25 0.1875H1.75C1.40251 0.189469 1.06981 0.328382 0.824098 0.574098C0.578382 0.819814 0.439469 1.15251 0.4375 1.5V10.5C0.439469 10.8475 0.578382 11.1802 0.824098 11.4259C1.06981 11.6716 1.40251 11.8105 1.75 11.8125H12.25C12.5975 11.8105 12.9302 11.6716 13.1759 11.4259C13.4216 11.1802 13.5605 10.8475 13.5625 10.5V1.5C13.5605 1.15251 13.4216 0.819814 13.1759 0.574098C12.9302 0.328382 12.5975 0.189469 12.25 0.1875ZM1.75 1.3125H12.25C12.2997 1.3125 12.3474 1.33225 12.3826 1.36742C12.4177 1.40258 12.4375 1.45027 12.4375 1.5V2.655L7 5.37L1.5625 2.655V1.5C1.5625 1.45027 1.58225 1.40258 1.61742 1.36742C1.65258 1.33225 1.70027 1.3125 1.75 1.3125ZM12.25 10.6875H1.75C1.70027 10.6875 1.65258 10.6677 1.61742 10.6326C1.58225 10.5974 1.5625 10.5497 1.5625 10.5V3.9075L6.745 6.5025C6.82417 6.5421 6.91148 6.56272 7 6.56272C7.08852 6.56272 7.17583 6.5421 7.255 6.5025L12.4375 3.9075V10.5C12.4375 10.5497 12.4177 10.5974 12.3826 10.6326C12.3474 10.6677 12.2997 10.6875 12.25 10.6875Z" fill="#00A6CB"/>
</svg>
