<svg width="18" height="16" viewBox="0 0 18 16" fill="none" xmlns="http://www.w3.org/2000/svg">
<path d="M15.417 0.895844H2.58366C2.15895 0.89825 1.75232 1.06803 1.452 1.36835C1.15168 1.66867 0.981899 2.0753 0.979492 2.50001V13.5C0.981899 13.9247 1.15168 14.3313 1.452 14.6317C1.75232 14.932 2.15895 15.1018 2.58366 15.1042H15.417C15.8417 15.1018 16.2483 14.932 16.5487 14.6317C16.849 14.3313 17.0188 13.9247 17.0212 13.5V2.50001C17.0188 2.0753 16.849 1.66867 16.5487 1.36835C16.2483 1.06803 15.8417 0.89825 15.417 0.895844ZM2.58366 2.27084H15.417C15.4778 2.27084 15.5361 2.29499 15.579 2.33796C15.622 2.38094 15.6462 2.43923 15.6462 2.50001V3.91168L9.00033 7.23001L2.35449 3.91168V2.50001C2.35449 2.43923 2.37864 2.38094 2.42161 2.33796C2.46459 2.29499 2.52288 2.27084 2.58366 2.27084ZM15.417 13.7292H2.58366C2.52288 13.7292 2.46459 13.705 2.42161 13.6621C2.37864 13.6191 2.35449 13.5608 2.35449 13.5V5.44251L8.68866 8.61418C8.78542 8.66258 8.89213 8.68778 9.00033 8.68778C9.10852 8.68778 9.21523 8.66258 9.31199 8.61418L15.6462 5.44251V13.5C15.6462 13.5608 15.622 13.6191 15.579 13.6621C15.5361 13.705 15.4778 13.7292 15.417 13.7292Z" fill="#64748B"/>
</svg>
