<svg width="18" height="14" viewBox="0 0 18 14" fill="none" xmlns="http://www.w3.org/2000/svg">
<path d="M17.6897 6.7C17.5697 6.44 14.8297 0.250004 8.99975 0.250004C8.44151 0.249417 7.88488 0.309774 7.33975 0.430004C7.16019 0.485586 7.00805 0.606564 6.91344 0.768986C6.81884 0.931407 6.78867 1.12343 6.82892 1.30704C6.86916 1.49064 6.97688 1.65244 7.13074 1.76041C7.28461 1.86837 7.4734 1.91462 7.65975 1.89C8.10049 1.79789 8.54948 1.75098 8.99975 1.75C13.1797 1.75 15.5797 5.85 16.1697 7C15.81 7.7028 15.3884 8.37212 14.9097 9C14.8238 9.1107 14.7706 9.24327 14.7561 9.38267C14.7417 9.52208 14.7666 9.66274 14.828 9.78872C14.8894 9.91469 14.9849 10.0209 15.1036 10.0954C15.2224 10.1699 15.3596 10.2096 15.4997 10.21C15.6137 10.2096 15.726 10.1833 15.8282 10.1331C15.9304 10.0828 16.0199 10.01 16.0897 9.92C16.7196 9.12016 17.2564 8.25123 17.6897 7.33C17.7336 7.23077 17.7562 7.12348 17.7562 7.015C17.7562 6.90653 17.7336 6.79924 17.6897 6.7Z" fill="#1E293B"/>
<path d="M3.52959 0.470029C3.38741 0.337549 3.19937 0.265426 3.00507 0.268855C2.81077 0.272283 2.62538 0.350995 2.48797 0.488408C2.35055 0.625821 2.27184 0.811206 2.26841 1.00551C2.26499 1.19981 2.33711 1.38785 2.46959 1.53003L3.38959 2.45003C2.08687 3.64844 1.03931 5.09734 0.309589 6.71003C0.27026 6.80341 0.25 6.90371 0.25 7.00503C0.25 7.10635 0.27026 7.20665 0.309589 7.30003C0.429589 7.56003 3.16959 13.75 8.99959 13.75C10.5589 13.7577 12.0859 13.3056 13.3896 12.45L14.4696 13.53C14.6102 13.6705 14.8008 13.7494 14.9996 13.7494C15.1983 13.7494 15.389 13.6705 15.5296 13.53C15.67 13.3894 15.7489 13.1988 15.7489 13C15.7489 12.8013 15.67 12.6107 15.5296 12.47L3.52959 0.470029ZM7.35959 6.47003L9.56959 8.69003C9.25985 8.7927 8.92812 8.80973 8.6095 8.73932C8.29087 8.66891 7.99721 8.51367 7.75959 8.29003C7.51759 8.05145 7.35075 7.74722 7.27967 7.41491C7.20858 7.08259 7.23637 6.73673 7.35959 6.42003V6.47003ZM8.99959 12.25C4.80959 12.25 2.41959 8.14003 1.82959 7.00003C2.48227 5.68634 3.37029 4.50345 4.44959 3.51003L6.23959 5.30003C5.85542 5.92094 5.69224 6.65341 5.7765 7.37868C5.86076 8.10395 6.18753 8.7795 6.70383 9.29579C7.22012 9.81209 7.89567 10.1389 8.62094 10.2231C9.34621 10.3074 10.0787 10.1442 10.6996 9.76003L12.3096 11.37C11.3048 11.954 10.1618 12.2579 8.99959 12.25Z" fill="#1E293B"/>
</svg>
