<svg width="10" height="10" viewBox="0 0 10 10" fill="none" xmlns="http://www.w3.org/2000/svg">
<path d="M6.0002 9.25H4.0002C3.90114 9.24871 3.80651 9.20878 3.73646 9.13873C3.66642 9.06869 3.62649 8.97405 3.6252 8.875V5L0.950197 1.345C0.907917 1.29003 0.882171 1.22416 0.875973 1.15509C0.869774 1.08602 0.88338 1.01662 0.915197 0.955C0.947071 0.893561 0.995121 0.841994 1.05416 0.805866C1.1132 0.769737 1.18098 0.750421 1.2502 0.75H8.7502C8.81941 0.750421 8.8872 0.769737 8.94623 0.805866C9.00527 0.841994 9.05332 0.893561 9.0852 0.955C9.11701 1.01662 9.13062 1.08602 9.12442 1.15509C9.11822 1.22416 9.09248 1.29003 9.0502 1.345L6.3752 5V8.875C6.3739 8.97405 6.33398 9.06869 6.26393 9.13873C6.19388 9.20878 6.09925 9.24871 6.0002 9.25V9.25ZM4.3752 8.5H5.6252V4.875C5.6248 4.79533 5.65122 4.71784 5.7002 4.655L8.0002 1.5H2.0002L4.3102 4.655C4.35918 4.71784 4.38559 4.79533 4.3852 4.875L4.3752 8.5Z" fill="#1E293B"/>
</svg>
