<svg width="24" height="24" viewBox="0 0 24 24" fill="none" xmlns="http://www.w3.org/2000/svg">
<path d="M10.9614 13.6034V11.1055V6.21503H13.5202V11.1055H19.4744V13.6034H13.5202H10.9614Z" fill="#FFFBF8"/>
<path d="M16.5286 3.91561C15.2607 3.15049 13.7853 2.76793 12.1025 2.76793C10.4197 2.76793 8.89823 3.15049 7.53813 3.91561C6.2011 4.65823 5.14069 5.7384 4.3569 7.15612C3.59617 8.55134 3.21581 10.1716 3.21581 12.0169C3.21581 13.8622 3.59617 15.4824 4.3569 16.8776C5.14069 18.2729 6.2011 19.353 7.53813 20.1181C8.89823 20.8608 10.4197 21.2321 12.1025 21.2321C14.4539 21.2321 16.3903 20.5457 17.9117 19.173C19.4332 17.8003 20.3207 15.9437 20.5743 13.6034C20.6854 12.5779 20.5743 11.1055 20.5743 11.1055H23.9284C24.0069 11.7403 24.0395 12.5779 23.9284 13.6034C23.7553 15.201 23.1216 17.1814 22.0611 18.8017C21.0007 20.3994 19.6061 21.6709 17.8771 22.616C16.1482 23.5387 14.2233 24 12.1025 24C9.86643 24 7.82629 23.4937 5.9821 22.481C4.13791 21.4459 2.67408 20.0169 1.59062 18.1941C0.530205 16.3713 0 14.3122 0 12.0169C0 9.72152 0.530205 7.66245 1.59062 5.83966C2.67408 3.99437 4.13791 2.5654 5.9821 1.55274C7.82629 0.517581 9.86643 0 12.1025 0C14.6613 0 16.9205 0.618847 18.8799 1.85654C19.4944 2.24016 20.0568 2.67242 20.5672 3.15332L18.3231 5.3974C17.8126 4.81127 17.2145 4.31734 16.5286 3.91561Z" fill="#FFFBF8"/>
</svg>
