<svg width="44" height="44" viewBox="0 0 44 44" fill="none" xmlns="http://www.w3.org/2000/svg">
<path d="M30.3024 7.17862C27.9779 5.7759 25.2731 5.07454 22.1879 5.07454C19.1028 5.07454 16.3134 5.7759 13.8199 7.17862C11.3687 8.54008 9.42459 10.5204 7.98766 13.1196C6.59299 15.6774 5.89565 18.6479 5.89565 22.0309C5.89565 25.414 6.59299 28.3844 7.98766 30.9423C9.42459 33.5002 11.3687 35.4805 13.8199 36.8833C16.3134 38.2447 19.1028 38.9254 22.1879 38.9254C26.4987 38.9254 30.0488 37.6671 32.8381 35.1505C35.6275 32.6338 37.2546 29.2302 37.7195 24.9395C37.9232 23.0596 37.7195 20.3601 37.7195 20.3601H43.8687C44.0126 21.5239 44.0724 23.0596 43.8687 24.9395C43.5514 27.8684 42.3895 31.4993 40.4454 34.4698C38.5013 37.399 35.9445 39.73 32.7747 41.4627C29.605 43.1542 26.0761 44 22.1879 44C18.0884 44 14.3482 43.0717 10.9672 41.2152C7.58616 39.3174 4.90248 36.6976 2.91613 33.3558C0.972043 30.0141 0 26.2391 0 22.0309C0 17.8228 0.972043 14.0478 2.91613 10.706C4.90248 7.32302 7.58616 4.70324 10.9672 2.84669C14.3482 0.948898 18.0884 0 22.1879 0C26.8791 0 31.0208 1.13455 34.6132 3.40366C35.7397 4.10696 36.7708 4.89943 37.7065 5.78109L33.5924 9.89523C32.6565 8.82066 31.5598 7.91513 30.3024 7.17862Z" fill="#003459"/>
<path d="M33.6776 20.3601V24.9395H24.7871V32.8926H20.0959V24.9395H11.2054V20.3601H20.0959V12.407H24.7871V20.3601H33.6776Z" fill="#003459"/>
</svg>
