<svg width="146" height="800" viewBox="0 0 146 800" fill="none" xmlns="http://www.w3.org/2000/svg">
<g opacity="0.32">
<path d="M39.4521 576.945V-63H84.513V532.957H189.367V576.945H39.4521Z" fill="#53C2B3"/>
<path d="M165.076 494.116C189.782 485.769 216.605 484.787 245.543 491.171C274.482 497.555 299.195 509.905 319.681 528.222C339.857 546.065 353.994 568.662 362.094 596.016C369.884 622.895 370.278 652.2 363.278 683.933C356.278 715.666 343.59 742.085 325.216 763.193C306.444 784.212 284.111 798.765 258.216 806.85C232.01 814.461 204.438 815.074 175.499 808.691C135.064 799.771 104.368 780.622 83.4117 751.244C62.4553 721.867 54.2359 686.574 58.7535 645.365C60.7329 627.31 68.2293 602.41 68.2293 602.41L10.5499 589.686C6.7921 600.306 3.05346 614.586 1.07404 632.641C-2.0098 660.771 1.37535 697.232 13.4643 729.118C25.6386 760.616 44.7989 787.772 70.9451 810.584C97.1767 833.009 128.528 848.244 164.999 856.289C203.452 864.772 240.456 863.804 276.011 853.386C311.652 842.581 342.246 823.561 367.792 796.325C392.942 769.002 409.871 735.604 418.579 696.132C427.286 656.66 425.98 619.24 414.659 583.871C403.027 548.028 383.276 517.902 355.403 493.492C327.616 468.694 294.497 452.054 256.044 443.572C212.041 433.865 170.844 435.937 132.453 449.788C120.43 454.054 109.119 459.353 98.5176 465.687L128.595 512.79C139.597 504.648 151.758 498.423 165.076 494.116Z" fill="#00A6CB"/>
</g>
</svg>
