<svg width="148" height="67" viewBox="0 0 148 67" fill="none" xmlns="http://www.w3.org/2000/svg">
<path d="M72.2783 19.2734V15.7343V8.80549H75.9036V15.7343H84.3396V19.2734H75.9036H72.2783Z" fill="#003459"/>
<path d="M80.1658 5.54766C78.3695 4.46364 76.2792 3.92163 73.895 3.92163C71.5107 3.92163 69.3551 4.46364 67.4281 5.54766C65.5338 6.59981 64.0314 8.1302 62.9209 10.1388C61.8431 12.1156 61.3042 14.4112 61.3042 17.0256C61.3042 19.64 61.8431 21.9356 62.9209 23.9123C64.0314 25.8891 65.5338 27.4195 67.4281 28.5035C69.3551 29.5557 71.5107 30.0817 73.895 30.0817C77.2264 30.0817 79.9699 29.1093 82.1255 27.1644C84.2811 25.2196 85.5385 22.5892 85.8978 19.2734C86.0552 17.8205 85.8978 15.7343 85.8978 15.7343H90.6499C90.7611 16.6338 90.8074 17.8205 90.6499 19.2734C90.4047 21.5368 89.5068 24.3428 88.0044 26.6384C86.502 28.9021 84.526 30.7035 82.0765 32.0425C79.6269 33.3498 76.8998 34.0034 73.895 34.0034C70.7269 34.0034 67.8364 33.286 65.2235 31.8512C62.6107 30.3846 60.5367 28.36 59.0016 25.7775C57.4992 23.195 56.748 20.2777 56.748 17.0256C56.748 13.7735 57.4992 10.8562 59.0016 8.27367C60.5367 5.65926 62.6107 3.63468 65.2235 2.19994C67.8364 0.733312 70.7269 0 73.895 0C77.5203 0 80.7211 0.876786 83.4972 2.63036C84.3678 3.17387 85.1647 3.7863 85.8878 4.46765L82.7084 7.64707C81.9851 6.81664 81.1376 6.11684 80.1658 5.54766Z" fill="#00A6CB"/>
<path d="M142.785 45.682C143.284 44.8684 143.931 44.2305 144.727 43.7683C145.54 43.306 146.465 43.0749 147.5 43.0749V47.1519H146.474C145.253 47.1519 144.329 47.4385 143.7 48.0117C143.09 48.5849 142.785 49.5834 142.785 51.0071V58.6619H138.902V43.2968H142.785V45.682Z" fill="#003459"/>
<path d="M119.939 50.9239C119.939 49.3707 120.244 47.9932 120.854 46.7914C121.483 45.5895 122.324 44.6651 123.378 44.0179C124.45 43.3708 125.643 43.0472 126.956 43.0472C128.102 43.0472 129.101 43.2783 129.951 43.7406C130.82 44.2028 131.514 44.7852 132.031 45.4879V43.2968H135.942V58.6619H132.031V56.4154C131.532 57.1365 130.839 57.7374 129.951 58.2182C129.082 58.6804 128.074 58.9115 126.928 58.9115C125.634 58.9115 124.45 58.5787 123.378 57.9131C122.324 57.2474 121.483 56.3137 120.854 55.1118C120.244 53.8915 119.939 52.4955 119.939 50.9239ZM132.031 50.9794C132.031 50.0364 131.846 49.2321 131.477 48.5664C131.107 47.8823 130.608 47.3646 129.979 47.0133C129.35 46.6435 128.675 46.4586 127.954 46.4586C127.233 46.4586 126.568 46.6342 125.957 46.9855C125.347 47.3368 124.848 47.8546 124.46 48.5387C124.09 49.2043 123.905 49.9994 123.905 50.9239C123.905 51.8484 124.09 52.6619 124.46 53.3646C124.848 54.0487 125.347 54.5756 125.957 54.9454C126.586 55.3152 127.252 55.5001 127.954 55.5001C128.675 55.5001 129.35 55.3245 129.979 54.9732C130.608 54.6034 131.107 54.0857 131.477 53.42C131.846 52.7359 132.031 51.9223 132.031 50.9794Z" fill="#003459"/>
<path d="M114.439 45.682C114.938 44.8684 115.586 44.2305 116.381 43.7683C117.194 43.306 118.119 43.0749 119.154 43.0749V47.1519H118.128C116.908 47.1519 115.983 47.4385 115.354 48.0117C114.744 48.5849 114.439 49.5834 114.439 51.0071V58.6619H110.556V43.2968H114.439V45.682Z" fill="#003459"/>
<path d="M96.4744 45.5433C96.9736 44.8037 97.6577 44.2028 98.5268 43.7406C99.4143 43.2783 100.422 43.0472 101.55 43.0472C102.863 43.0472 104.046 43.3708 105.1 44.0179C106.172 44.6651 107.014 45.5896 107.624 46.7914C108.252 47.9747 108.567 49.3522 108.567 50.9239C108.567 52.4955 108.252 53.8915 107.624 55.1119C107.014 56.3137 106.172 57.2474 105.1 57.9131C104.046 58.5787 102.863 58.9115 101.55 58.9115C100.403 58.9115 99.3958 58.6896 98.5268 58.2459C97.6762 57.7836 96.9921 57.192 96.4744 56.4709V58.6619H92.5915V38.1381H96.4744V45.5433ZM104.601 50.9239C104.601 49.9994 104.407 49.2043 104.018 48.5387C103.648 47.8546 103.149 47.3368 102.521 46.9855C101.91 46.6342 101.245 46.4586 100.524 46.4586C99.821 46.4586 99.1554 46.6435 98.5268 47.0133C97.9166 47.3646 97.4174 47.8823 97.0291 48.5664C96.6593 49.2506 96.4744 50.0549 96.4744 50.9794C96.4744 51.9039 96.6593 52.7082 97.0291 53.3923C97.4174 54.0764 97.9166 54.6034 98.5268 54.9732C99.1554 55.3245 99.821 55.5001 100.524 55.5001C101.245 55.5001 101.91 55.3152 102.521 54.9454C103.149 54.5756 103.648 54.0487 104.018 53.3646C104.407 52.6804 104.601 51.8669 104.601 50.9239Z" fill="#003459"/>
<path d="M83.4431 43.0749C85.3291 43.0749 86.8453 43.6574 87.9916 44.8222C89.1565 45.9686 89.7389 47.5772 89.7389 49.6481V58.6619H85.856V50.175C85.856 48.9732 85.551 48.058 84.9408 47.4293C84.3306 46.7821 83.4986 46.4586 82.4447 46.4586C81.3907 46.4586 80.5494 46.7821 79.9208 47.4293C79.3106 48.058 79.0055 48.9732 79.0055 50.175V58.6619H75.1227V50.175C75.1227 48.9732 74.8176 48.058 74.2074 47.4293C73.5972 46.7821 72.7652 46.4586 71.7113 46.4586C70.6389 46.4586 69.7883 46.7821 69.1597 47.4293C68.5495 48.058 68.2444 48.9732 68.2444 50.175V58.6619H64.3615V43.2968H68.2444V45.155C68.7436 44.5079 69.3815 43.9994 70.1581 43.6296C70.9532 43.2598 71.8222 43.0749 72.7652 43.0749C73.967 43.0749 75.0395 43.3338 75.9824 43.8515C76.9254 44.3507 77.6558 45.0718 78.1735 46.0148C78.6727 45.1273 79.3938 44.4154 80.3368 43.8792C81.2983 43.343 82.3337 43.0749 83.4431 43.0749Z" fill="#003459"/>
<path d="M62.3594 50.6465C62.3594 51.2012 62.3224 51.7005 62.2485 52.1442H51.0159C51.1083 53.2536 51.4966 54.1226 52.1807 54.7513C52.8649 55.38 53.7062 55.6943 54.7046 55.6943C56.1468 55.6943 57.173 55.0749 57.7832 53.836H61.9711C61.5274 55.3152 60.6768 56.5356 59.4195 57.497C58.1622 58.44 56.6183 58.9115 54.7878 58.9115C53.3086 58.9115 51.9773 58.588 50.794 57.9408C49.6291 57.2752 48.7139 56.3414 48.0482 55.1396C47.4011 53.9377 47.0775 52.551 47.0775 50.9794C47.0775 49.3892 47.4011 47.9932 48.0482 46.7914C48.6954 45.5895 49.6014 44.6651 50.7663 44.0179C51.9311 43.3708 53.2716 43.0472 54.7878 43.0472C56.2485 43.0472 57.5521 43.3615 58.6984 43.9902C59.8633 44.6188 60.7601 45.5156 61.3887 46.6805C62.0359 47.8268 62.3594 49.1489 62.3594 50.6465ZM58.3379 49.5371C58.3194 48.5387 57.9588 47.7436 57.2562 47.1519C56.5536 46.5418 55.6938 46.2367 54.6769 46.2367C53.7154 46.2367 52.9018 46.5325 52.2362 47.1242C51.5891 47.6974 51.1915 48.5017 51.0436 49.5371H58.3379Z" fill="#003459"/>
<path d="M40.061 55.5833H46.4401V58.6619H36.1782V39.303H40.061V55.5833Z" fill="#003459"/>
<path d="M26.284 58.856C24.7123 58.856 23.2979 58.5325 22.0405 57.8853C20.7832 57.2382 19.794 56.3137 19.0729 55.1118C18.3703 53.8915 18.019 52.4678 18.019 50.8407C18.019 49.2136 18.3703 47.7991 19.0729 46.5972C19.794 45.3769 20.7832 44.4432 22.0405 43.796C23.2979 43.1489 24.7123 42.8253 26.284 42.8253C27.8556 42.8253 29.2701 43.1489 30.5274 43.796C31.7847 44.4432 32.7647 45.3769 33.4673 46.5972C34.1884 47.7991 34.549 49.2136 34.549 50.8407C34.549 52.4678 34.1884 53.8915 33.4673 55.1118C32.7647 56.3137 31.7847 57.2382 30.5274 57.8853C29.2701 58.5325 27.8556 58.856 26.284 58.856ZM26.284 53.531C26.8572 53.531 27.3379 53.3091 27.7262 52.8653C28.1145 52.4031 28.3086 51.7282 28.3086 50.8407C28.3086 49.9532 28.1145 49.2875 27.7262 48.8438C27.3379 48.3815 26.8572 48.1504 26.284 48.1504C25.7108 48.1504 25.23 48.3815 24.8418 48.8438C24.4535 49.2875 24.2593 49.9532 24.2593 50.8407C24.2593 51.7282 24.4442 52.4031 24.814 52.8653C25.2023 53.3091 25.6923 53.531 26.284 53.531Z" fill="#00A6CB"/>
<path d="M6.46222 42.8253C7.47917 42.8253 8.35744 43.0379 9.09703 43.4632C9.83663 43.87 10.4006 44.4339 10.7889 45.155V43.0194H16.9183V58.3846C16.9183 59.8453 16.6502 61.1765 16.1139 62.3784C15.5777 63.5802 14.7087 64.5417 13.5069 65.2628C12.3235 65.9839 10.7981 66.3445 8.93062 66.3445C6.416 66.3445 4.41909 65.7528 2.93989 64.5694C1.47919 63.4046 0.647147 61.8144 0.443758 59.799H6.48996C6.65636 60.6126 7.322 61.0194 8.48686 61.0194C9.20797 61.0194 9.77191 60.8345 10.1787 60.4647C10.5855 60.0949 10.7889 59.4015 10.7889 58.3846V56.5263C10.4006 57.2474 9.83663 57.8206 9.09703 58.2459C8.35744 58.6527 7.47917 58.856 6.46222 58.856C5.24189 58.856 4.14174 58.5417 3.16177 57.9131C2.18181 57.2659 1.40523 56.3414 0.832046 55.1396C0.277349 53.9192 0 52.4863 0 50.8407C0 49.1951 0.277349 47.7714 0.832046 46.5695C1.40523 45.3492 2.18181 44.4247 3.16177 43.796C4.14174 43.1489 5.24189 42.8253 6.46222 42.8253ZM10.7889 50.8407C10.7889 50.0086 10.5762 49.3615 10.151 48.8992C9.72569 48.437 9.18024 48.2059 8.5146 48.2059C7.84896 48.2059 7.30351 48.437 6.87824 48.8992C6.45298 49.3615 6.24034 50.0086 6.24034 50.8407C6.24034 51.6727 6.45298 52.3199 6.87824 52.7821C7.30351 53.2444 7.84896 53.4755 8.5146 53.4755C9.18024 53.4755 9.72569 53.2444 10.151 52.7821C10.5762 52.3199 10.7889 51.6727 10.7889 50.8407Z" fill="#00A6CB"/>
</svg>
