<svg width="976" height="439" viewBox="0 0 976 439" fill="none" xmlns="http://www.w3.org/2000/svg">
<path d="M478.24 127.525V104.108V58.2626H502.227V104.108L558.045 104.108V127.525L502.227 127.525H478.24Z" fill="#FFFBF8"/>
<path d="M530.429 36.7068C518.543 29.5342 504.713 25.9479 488.937 25.9479C473.161 25.9479 458.899 29.5342 446.148 36.7068C433.614 43.6684 423.674 53.7945 416.326 67.0849C409.195 80.1643 405.629 95.3533 405.629 112.652C405.629 129.951 409.195 145.14 416.326 158.219C423.674 171.298 433.614 181.424 446.148 188.597C458.899 195.559 473.161 199.04 488.937 199.04C510.98 199.04 529.132 192.605 543.395 179.737C557.658 166.868 565.978 149.464 568.355 127.525C569.397 117.912 568.355 104.108 568.355 104.108H599.798C600.534 110.059 600.84 117.912 599.798 127.525C598.176 142.501 592.235 161.067 582.294 176.256C572.353 191.234 559.279 203.153 543.071 212.013C526.863 220.663 508.819 224.987 488.937 224.987C467.975 224.987 448.85 220.241 431.561 210.748C414.273 201.044 400.55 187.648 390.393 170.56C380.453 153.472 375.482 134.17 375.482 112.652C375.482 91.1342 380.453 71.8314 390.393 54.7438C400.55 37.4452 414.273 24.0493 431.561 14.5561C448.85 4.85205 467.975 0 488.937 0C512.925 0 534.103 5.80136 552.472 17.4041C558.232 21.0003 563.504 25.0525 568.289 29.5607L547.252 50.5978C542.466 45.1031 536.859 40.4728 530.429 36.7068Z" fill="#FFFBF8"/>
<path d="M944.755 302.261C948.058 296.878 952.34 292.657 957.601 289.598C962.984 286.54 969.101 285.011 975.952 285.011V311.987H969.162C961.088 311.987 954.97 313.883 950.811 317.676C946.774 321.468 944.755 328.075 944.755 337.495V388.144H919.064V286.479H944.755V302.261Z" fill="#FFFBF8"/>
<path d="M793.591 336.944C793.591 326.668 795.609 317.553 799.647 309.601C803.806 301.649 809.373 295.532 816.346 291.25C823.442 286.968 831.333 284.827 840.019 284.827C847.604 284.827 854.211 286.356 859.838 289.415C865.588 292.473 870.176 296.327 873.602 300.976V286.479H899.477V388.144H873.602V373.279C870.298 378.051 865.711 382.027 859.838 385.208C854.088 388.266 847.421 389.795 839.836 389.795C831.272 389.795 823.442 387.593 816.346 383.189C809.373 378.785 803.806 372.607 799.647 364.654C795.609 356.58 793.591 347.343 793.591 336.944ZM873.602 337.311C873.602 331.072 872.378 325.75 869.931 321.346C867.485 316.819 864.181 313.394 860.022 311.069C855.862 308.622 851.397 307.399 846.625 307.399C841.854 307.399 837.45 308.561 833.413 310.886C829.375 313.21 826.072 316.636 823.503 321.162C821.056 325.567 819.833 330.827 819.833 336.944C819.833 343.061 821.056 348.444 823.503 353.093C826.072 357.62 829.375 361.107 833.413 363.553C837.572 366 841.976 367.224 846.625 367.224C851.397 367.224 855.862 366.061 860.022 363.737C864.181 361.29 867.485 357.865 869.931 353.46C872.378 348.934 873.602 343.551 873.602 337.311Z" fill="#FFFBF8"/>
<path d="M757.201 302.261C760.504 296.878 764.786 292.657 770.047 289.598C775.43 286.54 781.547 285.011 788.398 285.011V311.987H781.608C773.534 311.987 767.416 313.883 763.257 317.676C759.22 321.468 757.201 328.075 757.201 337.495V388.144H731.51V286.479H757.201V302.261Z" fill="#FFFBF8"/>
<path d="M638.335 301.343C641.638 296.45 646.164 292.473 651.914 289.415C657.787 286.356 664.454 284.827 671.917 284.827C680.603 284.827 688.433 286.968 695.407 291.25C702.502 295.532 708.069 301.649 712.106 309.601C716.266 317.431 718.345 326.545 718.345 336.944C718.345 347.343 716.266 356.58 712.106 364.654C708.069 372.607 702.502 378.785 695.407 383.189C688.433 387.593 680.603 389.796 671.917 389.796C664.332 389.796 657.664 388.327 651.914 385.391C646.287 382.333 641.76 378.418 638.335 373.647V388.144H612.643V252.346H638.335V301.343ZM692.103 336.944C692.103 330.827 690.819 325.567 688.25 321.162C685.803 316.636 682.5 313.21 678.34 310.886C674.303 308.561 669.899 307.399 665.127 307.399C660.478 307.399 656.074 308.622 651.914 311.069C647.877 313.394 644.574 316.819 642.005 321.346C639.558 325.872 638.335 331.194 638.335 337.311C638.335 343.428 639.558 348.75 642.005 353.277C644.574 357.803 647.877 361.29 651.914 363.737C656.074 366.061 660.478 367.224 665.127 367.224C669.899 367.224 674.303 366 678.34 363.553C682.5 361.107 685.803 357.62 688.25 353.093C690.819 348.567 692.103 343.184 692.103 336.944Z" fill="#FFFBF8"/>
<path d="M552.112 285.011C564.59 285.011 574.622 288.864 582.208 296.572C589.915 304.157 593.769 314.801 593.769 328.503V388.144H568.077V331.989C568.077 324.037 566.059 317.981 562.021 313.822C557.984 309.54 552.479 307.399 545.505 307.399C538.532 307.399 532.965 309.54 528.806 313.822C524.769 317.981 522.75 324.037 522.75 331.989V388.144H497.058V331.989C497.058 324.037 495.04 317.981 491.003 313.822C486.965 309.54 481.46 307.399 474.487 307.399C467.391 307.399 461.763 309.54 457.604 313.822C453.566 317.981 451.548 324.037 451.548 331.989V388.144H425.856V286.479H451.548V298.774C454.851 294.492 459.072 291.128 464.21 288.681C469.471 286.234 475.221 285.011 481.46 285.011C489.412 285.011 496.508 286.723 502.747 290.149C508.987 293.452 513.819 298.223 517.245 304.463C520.548 298.59 525.319 293.88 531.558 290.332C537.92 286.785 544.771 285.011 552.112 285.011Z" fill="#FFFBF8"/>
<path d="M412.609 335.109C412.609 338.779 412.364 342.083 411.875 345.019H337.553C338.165 352.359 340.734 358.109 345.26 362.269C349.787 366.428 355.353 368.508 361.96 368.508C371.502 368.508 378.292 364.41 382.33 356.213H410.04C407.104 366 401.476 374.075 393.157 380.436C384.838 386.676 374.622 389.795 362.51 389.795C352.723 389.795 343.915 387.655 336.085 383.373C328.377 378.968 322.321 372.79 317.917 364.838C313.635 356.886 311.494 347.71 311.494 337.311C311.494 326.79 313.635 317.553 317.917 309.601C322.199 301.649 328.194 295.532 335.901 291.25C343.609 286.968 352.478 284.827 362.51 284.827C372.175 284.827 380.8 286.907 388.385 291.067C396.093 295.226 402.026 301.16 406.186 308.867C410.468 316.452 412.609 325.2 412.609 335.109ZM386 327.769C385.877 321.162 383.492 315.902 378.843 311.987C374.194 307.95 368.505 305.931 361.776 305.931C355.415 305.931 350.032 307.888 345.627 311.803C341.345 315.596 338.715 320.918 337.736 327.769H386Z" fill="#FFFBF8"/>
<path d="M265.069 367.774H307.276V388.144H239.377V260.053H265.069V367.774Z" fill="#FFFBF8"/>
<path d="M173.911 389.428C163.512 389.428 154.153 387.287 145.834 383.006C137.515 378.724 130.97 372.607 126.198 364.654C121.549 356.58 119.225 347.16 119.225 336.394C119.225 325.628 121.549 316.269 126.198 308.317C130.97 300.242 137.515 294.064 145.834 289.782C154.153 285.5 163.512 283.359 173.911 283.359C184.31 283.359 193.669 285.5 201.988 289.782C210.308 294.064 216.792 300.242 221.441 308.317C226.212 316.269 228.597 325.628 228.597 336.394C228.597 347.16 226.212 356.58 221.441 364.654C216.792 372.607 210.308 378.724 201.988 383.006C193.669 387.287 184.31 389.428 173.911 389.428ZM173.911 354.194C177.704 354.194 180.885 352.726 183.454 349.79C186.023 346.732 187.307 342.266 187.307 336.394C187.307 330.521 186.023 326.117 183.454 323.181C180.885 320.122 177.704 318.593 173.911 318.593C170.119 318.593 166.938 320.122 164.369 323.181C161.799 326.117 160.515 330.521 160.515 336.394C160.515 342.266 161.738 346.732 164.185 349.79C166.754 352.726 169.996 354.194 173.911 354.194Z" fill="#FFFBF8"/>
<path d="M42.7581 283.359C49.4868 283.359 55.298 284.766 60.1916 287.58C65.0853 290.271 68.8167 294.003 71.3858 298.774V284.644H111.942L111.942 386.309C111.942 395.974 110.168 404.782 106.62 412.734C103.072 420.686 97.322 427.048 89.3699 431.819C81.5401 436.591 71.447 438.976 59.0906 438.976C42.4522 438.976 29.2394 435.062 19.4522 427.232C9.78726 419.524 4.28193 409.003 2.93618 395.668H42.9416C44.0427 401.051 48.4469 403.742 56.1544 403.742C60.9257 403.742 64.6571 402.519 67.3486 400.072C70.0401 397.625 71.3858 393.037 71.3858 386.309L71.3858 374.014C68.8167 378.785 65.0853 382.577 60.1916 385.391C55.298 388.083 49.4868 389.428 42.7581 389.428C34.6836 389.428 27.4043 387.349 20.9203 383.189C14.4362 378.907 9.29789 372.79 5.50533 364.838C1.83511 356.763 0 347.282 0 336.394C0 325.505 1.83511 316.085 5.50533 308.133C9.29789 300.059 14.4362 293.941 20.9203 289.782C27.4043 285.5 34.6836 283.359 42.7581 283.359ZM71.3858 336.394C71.3858 330.888 69.9789 326.606 67.1651 323.548C64.3512 320.489 60.7422 318.96 56.3379 318.96C51.9336 318.96 48.3246 320.489 45.5107 323.548C42.6969 326.606 41.29 330.888 41.29 336.394C41.29 341.899 42.6969 346.181 45.5107 349.24C48.3246 352.298 51.9336 353.827 56.3379 353.827C60.7422 353.827 64.3512 352.298 67.1651 349.24C69.9789 346.181 71.3858 341.899 71.3858 336.394Z" fill="#FFFBF8"/>
</svg>
