<svg width="10" height="10" viewBox="0 0 10 10" fill="none" xmlns="http://www.w3.org/2000/svg">
<path d="M8.025 2.03994C7.2388 1.25708 6.17449 0.817554 5.065 0.817554C3.95551 0.817554 2.8912 1.25708 2.105 2.03994L1.5 2.64494V1.18994C1.5 1.09049 1.46049 0.995102 1.39017 0.924776C1.31984 0.85445 1.22446 0.814941 1.125 0.814941C1.02554 0.814941 0.930161 0.85445 0.859835 0.924776C0.789509 0.995102 0.75 1.09049 0.75 1.18994V3.55994C0.749991 3.65986 0.78934 3.75577 0.859526 3.82689C0.929712 3.89801 1.02509 3.93863 1.125 3.93994H3.5C3.59946 3.93994 3.69484 3.90043 3.76516 3.83011C3.83549 3.75978 3.875 3.6644 3.875 3.56494C3.875 3.46549 3.83549 3.3701 3.76516 3.29978C3.69484 3.22945 3.59946 3.18994 3.5 3.18994H2L2.635 2.56994C3.27993 1.92631 4.15385 1.56483 5.065 1.56483C5.97615 1.56483 6.85007 1.92631 7.495 2.56994C10.59 5.91494 5.995 10.5249 2.635 7.42994C2.56469 7.35972 2.46938 7.32027 2.37 7.32027C2.27062 7.32027 2.17531 7.35972 2.105 7.42994C2.06962 7.46441 2.0415 7.50562 2.0223 7.55114C2.00311 7.59665 1.99322 7.64554 1.99322 7.69494C1.99322 7.74434 2.00311 7.79323 2.0223 7.83875C2.0415 7.88426 2.06962 7.92547 2.105 7.95994C2.89004 8.74498 3.95478 9.18601 5.065 9.18601C6.17522 9.18601 7.23996 8.74498 8.025 7.95994C8.81004 7.1749 9.25107 6.11016 9.25107 4.99994C9.25107 3.88973 8.81004 2.82498 8.025 2.03994Z" fill="white"/>
<path d="M5 2.875C4.90095 2.87629 4.80631 2.91622 4.73627 2.98627C4.66622 3.05631 4.62629 3.15095 4.625 3.25V5C4.62509 5.09942 4.66465 5.19474 4.735 5.265L6 6.5C6.03462 6.53506 6.0759 6.56284 6.1214 6.58173C6.16691 6.60062 6.21573 6.61023 6.265 6.61C6.33085 6.60041 6.39296 6.57347 6.44496 6.53195C6.49695 6.49043 6.53697 6.43582 6.56089 6.37372C6.58481 6.31163 6.59178 6.24429 6.58108 6.17861C6.57038 6.11294 6.54239 6.05129 6.5 6L5.36 4.86V3.25C5.35886 3.15346 5.32102 3.06096 5.25415 2.99131C5.18729 2.92166 5.09642 2.88007 5 2.875Z" fill="white"/>
</svg>
