<svg width="16" height="16" viewBox="0 0 16 16" fill="none" xmlns="http://www.w3.org/2000/svg">
<path d="M6.9752 13.25C5.73412 13.25 4.52091 12.8819 3.48899 12.1924C2.45708 11.5029 1.65279 10.5229 1.17785 9.37629C0.702914 8.22969 0.578648 6.96799 0.820771 5.75076C1.06289 4.53353 1.66053 3.41543 2.5381 2.53786C3.41568 1.66028 4.53378 1.06265 5.75101 0.820526C6.96824 0.578404 8.22993 0.70267 9.37654 1.17761C10.5231 1.65255 11.5032 2.45683 12.1927 3.48875C12.8822 4.52067 13.2502 5.73388 13.2502 6.97495C13.2502 7.799 13.0879 8.61497 12.7725 9.37629C12.4572 10.1376 11.995 10.8294 11.4123 11.412C10.8296 11.9947 10.1379 12.4569 9.37654 12.7723C8.61522 13.0876 7.79924 13.25 6.9752 13.25V13.25ZM6.9752 1.95829C5.98629 1.95829 5.01959 2.25153 4.19735 2.80094C3.3751 3.35035 2.73424 4.13124 2.3558 5.04487C1.97736 5.9585 1.87835 6.96383 2.07127 7.93374C2.2642 8.90364 2.7404 9.79456 3.43966 10.4938C4.13893 11.1931 5.02984 11.6693 5.99975 11.8622C6.96965 12.0551 7.97498 11.9561 8.88862 11.5777C9.80225 11.1992 10.5831 10.5584 11.1325 9.73614C11.682 8.91389 11.9752 7.94719 11.9752 6.95829C11.9752 5.6322 11.4484 4.36044 10.5107 3.42275C9.57305 2.48507 8.30128 1.95829 6.9752 1.95829Z" fill="#64748B"/>
<path d="M14.6668 15.2916C14.5847 15.2919 14.5033 15.2759 14.4275 15.2444C14.3516 15.213 14.2828 15.1666 14.2251 15.1082L10.7835 11.6666C10.6731 11.5481 10.613 11.3914 10.6158 11.2295C10.6187 11.0675 10.6843 10.913 10.7988 10.7985C10.9133 10.684 11.0678 10.6184 11.2297 10.6156C11.3916 10.6127 11.5483 10.6728 11.6668 10.7832L15.1085 14.2249C15.2255 14.3421 15.2912 14.5009 15.2912 14.6666C15.2912 14.8322 15.2255 14.991 15.1085 15.1082C15.0508 15.1666 14.982 15.213 14.9061 15.2444C14.8303 15.2759 14.7489 15.2919 14.6668 15.2916V15.2916Z" fill="#64748B"/>
</svg>
