<svg width="16" height="10" viewBox="0 0 16 10" fill="none" xmlns="http://www.w3.org/2000/svg">
<path d="M14.513 0.460948C14.3249 0.46006 14.1386 0.496735 13.965 0.568818C13.7913 0.640903 13.6338 0.746944 13.5017 0.880722L7.77751 6.60491L2.05333 0.880722C1.77614 0.746872 1.46317 0.705964 1.16089 0.764074C0.858611 0.822185 0.583124 0.976213 0.375319 1.2033C0.167515 1.43038 0.0384705 1.71842 0.00733916 2.02466C-0.0237922 2.3309 0.0446492 2.63901 0.202505 2.90327L6.88072 9.58149C7.14904 9.84947 7.51276 10 7.89199 10C8.27122 10 8.63495 9.84947 8.90327 9.58149L15.5815 2.90327C15.8495 2.63495 16 2.27122 16 1.89199C16 1.51277 15.8495 1.14904 15.5815 0.880722C15.4427 0.739825 15.2759 0.629651 15.0918 0.557338C14.9077 0.485025 14.7105 0.452187 14.513 0.460948Z" fill="#00A6CB"/>
</svg>
