<svg width="16" height="10" viewBox="0 0 16 10" fill="none" xmlns="http://www.w3.org/2000/svg">
<path d="M14.513 9.53905C14.3249 9.53994 14.1386 9.50327 13.965 9.43118C13.7913 9.3591 13.6338 9.25306 13.5017 9.11928L7.77751 3.39509L2.05333 9.11928C1.77614 9.25313 1.46317 9.29404 1.16089 9.23593C0.858611 9.17782 0.583124 9.02379 0.375319 8.7967C0.167515 8.56962 0.0384705 8.28158 0.00733916 7.97534C-0.0237922 7.6691 0.0446492 7.36099 0.202505 7.09673L6.88072 0.418515C7.14904 0.150527 7.51276 0 7.89199 0C8.27122 0 8.63495 0.150527 8.90327 0.418515L15.5815 7.09673C15.8495 7.36505 16 7.72878 16 8.10801C16 8.48723 15.8495 8.85096 15.5815 9.11928C15.4427 9.26017 15.2759 9.37035 15.0918 9.44266C14.9077 9.51497 14.7105 9.54781 14.513 9.53905Z" fill="#00A6CB"/>
</svg>
