<svg width="12" height="12" viewBox="0 0 12 12" fill="none" xmlns="http://www.w3.org/2000/svg">
<path d="M11.1875 3.66138H1.0625C1.00017 3.66138 0.938457 3.6491 0.880875 3.62525C0.823293 3.6014 0.770972 3.56644 0.7269 3.52237C0.682829 3.4783 0.647869 3.42598 0.624018 3.36839C0.600167 3.31081 0.587891 3.24909 0.587891 3.18677C0.587891 3.12444 0.600167 3.06272 0.624018 3.00514C0.647869 2.94756 0.682829 2.89524 0.7269 2.85117C0.770972 2.8071 0.823293 2.77214 0.880875 2.74829C0.938457 2.72443 1.00017 2.71216 1.0625 2.71216H11.1875C11.3134 2.71216 11.4341 2.76216 11.5231 2.85117C11.6121 2.94017 11.6621 3.06089 11.6621 3.18677C11.6621 3.31264 11.6121 3.43336 11.5231 3.52237C11.4341 3.61137 11.3134 3.66138 11.1875 3.66138V3.66138Z" fill="#00A6CB"/>
<path d="M8.93469 11.2869H3.31531C3.11477 11.3007 2.9135 11.2744 2.72317 11.2098C2.53284 11.1451 2.35724 11.0433 2.20655 10.9103C2.05586 10.7773 1.93307 10.6156 1.84531 10.4348C1.75756 10.254 1.70657 10.0575 1.69531 9.85679V3.21859C1.69531 3.09272 1.74532 2.972 1.83432 2.88299C1.92333 2.79398 2.04405 2.74398 2.16992 2.74398C2.2958 2.74398 2.41651 2.79398 2.50552 2.88299C2.59453 2.972 2.64453 3.09272 2.64453 3.21859V9.85679C2.64453 10.1162 2.94195 10.3377 3.27734 10.3377H8.89672C9.25109 10.3377 9.52953 10.1162 9.52953 9.85679V3.21859C9.52953 3.08265 9.58353 2.95227 9.67966 2.85614C9.77579 2.76002 9.90617 2.70601 10.0421 2.70601C10.1781 2.70601 10.3084 2.76002 10.4046 2.85614C10.5007 2.95227 10.5547 3.08265 10.5547 3.21859V9.85679C10.5434 10.0575 10.4924 10.254 10.4047 10.4348C10.3169 10.6156 10.1941 10.7773 10.0435 10.9103C9.89276 11.0433 9.71716 11.1451 9.52683 11.2098C9.3365 11.2744 9.13523 11.3007 8.93469 11.2869ZM9.01062 3.06039C8.94806 3.06124 8.88596 3.04954 8.828 3.02599C8.77003 3.00244 8.71737 2.96752 8.67313 2.92327C8.62889 2.87903 8.59396 2.82637 8.57041 2.76841C8.54686 2.71044 8.53516 2.64834 8.53602 2.58578V1.64289C8.53602 1.38343 8.23227 1.16195 7.9032 1.16195H4.36578C4.01773 1.16195 3.73297 1.38343 3.73297 1.64289V2.58578C3.73297 2.71165 3.68297 2.83237 3.59396 2.92138C3.50495 3.01038 3.38423 3.06039 3.25836 3.06039C3.13249 3.06039 3.01177 3.01038 2.92276 2.92138C2.83375 2.83237 2.78375 2.71165 2.78375 2.58578V1.64289C2.80825 1.24504 2.98754 0.872606 3.28322 0.605306C3.57891 0.338006 3.96749 0.197092 4.36578 0.212731H7.88422C8.28571 0.191967 8.67916 0.330573 8.97898 0.5984C9.27881 0.866226 9.46075 1.24161 9.48523 1.64289V2.58578C9.48607 2.64863 9.47442 2.71103 9.45094 2.76935C9.42746 2.82766 9.39264 2.88073 9.34848 2.92548C9.30433 2.97022 9.25172 3.00575 9.19372 3.02999C9.13572 3.05424 9.07349 3.06672 9.01062 3.06672V3.06039Z" fill="#00A6CB"/>
<path d="M4.99854 8.91376C4.87317 8.91212 4.7534 8.86159 4.66475 8.77294C4.57609 8.68428 4.52556 8.56451 4.52393 8.43915V5.57251C4.52393 5.44664 4.57393 5.32592 4.66294 5.23691C4.75194 5.1479 4.87266 5.0979 4.99854 5.0979C5.12441 5.0979 5.24513 5.1479 5.33413 5.23691C5.42314 5.32592 5.47314 5.44664 5.47314 5.57251V8.43282C5.47398 8.49568 5.46233 8.55808 5.43885 8.61639C5.41537 8.67471 5.38055 8.72778 5.33639 8.77252C5.29224 8.81726 5.23963 8.85279 5.18163 8.87704C5.12364 8.90128 5.0614 8.91377 4.99854 8.91376V8.91376Z" fill="#00A6CB"/>
<path d="M7.25146 8.91376C7.12559 8.91376 7.00487 8.86376 6.91587 8.77475C6.82686 8.68574 6.77686 8.56502 6.77686 8.43915V5.57251C6.77686 5.44664 6.82686 5.32592 6.91587 5.23691C7.00487 5.1479 7.12559 5.0979 7.25146 5.0979C7.37734 5.0979 7.49806 5.1479 7.58706 5.23691C7.67607 5.32592 7.72607 5.44664 7.72607 5.57251V8.43282C7.72609 8.55929 7.67628 8.68067 7.58746 8.77068C7.49863 8.86069 7.37792 8.9121 7.25146 8.91376Z" fill="#00A6CB"/>
</svg>
