<svg width="20" height="15" viewBox="0 0 20 15" fill="none" xmlns="http://www.w3.org/2000/svg">
<path d="M11.9658 7.95679C11.2241 7.95679 10.4991 7.73686 9.88243 7.3248C9.26575 6.91274 8.7851 6.32707 8.50127 5.64185C8.21745 4.95663 8.14318 4.20263 8.28788 3.4752C8.43257 2.74777 8.78972 2.07959 9.31417 1.55514C9.83862 1.03069 10.5068 0.673539 11.2342 0.528844C11.9617 0.384149 12.7157 0.458412 13.4009 0.742241C14.0861 1.02607 14.6718 1.50672 15.0838 2.1234C15.4959 2.74008 15.7158 3.46511 15.7158 4.20679C15.7158 5.20135 15.3207 6.15518 14.6175 6.85844C13.9142 7.5617 12.9604 7.95679 11.9658 7.95679ZM11.9658 1.95679C11.5208 1.95679 11.0858 2.08875 10.7158 2.33598C10.3458 2.58322 10.0574 2.93462 9.88709 3.34575C9.7168 3.75688 9.67224 4.20928 9.75906 4.64574C9.84587 5.0822 10.0602 5.48311 10.3748 5.79778C10.6895 6.11245 11.0904 6.32674 11.5269 6.41356C11.9633 6.50037 12.4157 6.45581 12.8269 6.28552C13.238 6.11522 13.5894 5.82683 13.8366 5.45682C14.0839 5.08681 14.2158 4.6518 14.2158 4.20679C14.2158 3.61005 13.9788 3.03776 13.5568 2.6158C13.1349 2.19384 12.5626 1.95679 11.9658 1.95679Z" fill="#FFFBF8"/>
<path d="M18.9658 14.9568C18.7677 14.9542 18.5784 14.8743 18.4384 14.7343C18.2983 14.5942 18.2184 14.4049 18.2158 14.2068C18.2158 12.2568 17.1558 10.9568 11.9658 10.9568C6.77582 10.9568 5.71582 12.2568 5.71582 14.2068C5.71582 14.4057 5.6368 14.5965 5.49615 14.7371C5.3555 14.8778 5.16473 14.9568 4.96582 14.9568C4.76691 14.9568 4.57614 14.8778 4.43549 14.7371C4.29484 14.5965 4.21582 14.4057 4.21582 14.2068C4.21582 9.45679 9.64582 9.45679 11.9658 9.45679C14.2858 9.45679 19.7158 9.45679 19.7158 14.2068C19.7132 14.4049 19.6334 14.5942 19.4933 14.7343C19.3532 14.8743 19.1639 14.9542 18.9658 14.9568Z" fill="#FFFBF8"/>
<path d="M6.28569 8.7668H5.96569C5.17004 8.68989 4.43753 8.30006 3.92931 7.68306C3.42109 7.06607 3.17878 6.27245 3.25569 5.4768C3.33261 4.68115 3.72244 3.94864 4.33943 3.44042C4.95643 2.9322 5.75004 2.68989 6.54569 2.7668C6.64771 2.77119 6.74776 2.79636 6.83971 2.84077C6.93166 2.88519 7.01357 2.94791 7.08042 3.0251C7.14727 3.10229 7.19766 3.19232 7.22849 3.28967C7.25932 3.38701 7.26994 3.48963 7.25972 3.59123C7.24949 3.69283 7.21862 3.79127 7.169 3.88052C7.11939 3.96977 7.05207 4.04795 6.97117 4.11027C6.89028 4.17258 6.79751 4.21772 6.69855 4.24292C6.5996 4.26811 6.49654 4.27284 6.39569 4.2568C6.20048 4.23734 6.00335 4.25741 5.81608 4.31583C5.6288 4.37425 5.45522 4.46981 5.30569 4.5968C5.15382 4.7193 5.02786 4.87082 4.93514 5.0425C4.84243 5.21419 4.78483 5.40262 4.76569 5.5968C4.74501 5.79342 4.76367 5.99218 4.82058 6.18151C4.87748 6.37085 4.97149 6.54696 5.09714 6.6996C5.22279 6.85224 5.37755 6.97835 5.55242 7.07058C5.72729 7.1628 5.91877 7.21931 6.11569 7.2368C6.44123 7.26465 6.76713 7.18755 7.04569 7.0168C7.21543 6.91204 7.41983 6.879 7.61393 6.92495C7.80803 6.97089 7.97593 7.09206 8.08069 7.2618C8.18545 7.43154 8.21849 7.63594 8.17255 7.83004C8.1266 8.02414 8.00543 8.19204 7.83569 8.2968C7.37189 8.59262 6.83568 8.75521 6.28569 8.7668Z" fill="#FFFBF8"/>
<path d="M0.96582 14.2068C0.767713 14.2042 0.578449 14.1243 0.438354 13.9843C0.298259 13.8442 0.21841 13.6549 0.21582 13.4568C0.21582 10.7568 0.93582 8.95679 4.46582 8.95679C4.66473 8.95679 4.8555 9.03581 4.99615 9.17646C5.1368 9.31711 5.21582 9.50787 5.21582 9.70679C5.21582 9.9057 5.1368 10.0965 4.99615 10.2371C4.8555 10.3778 4.66473 10.4568 4.46582 10.4568C2.11582 10.4568 1.71582 11.2068 1.71582 13.4568C1.71323 13.6549 1.63338 13.8442 1.49329 13.9843C1.35319 14.1243 1.16393 14.2042 0.96582 14.2068Z" fill="#FFFBF8"/>
</svg>
