<svg width="28" height="28" viewBox="0 0 28 28" fill="none" xmlns="http://www.w3.org/2000/svg">
<path d="M14 14.2917C13.1347 14.2917 12.2888 14.0352 11.5694 13.5544C10.8499 13.0737 10.2892 12.3904 9.95803 11.591C9.6269 10.7916 9.54026 9.9119 9.70907 9.06323C9.87788 8.21456 10.2946 7.43501 10.9064 6.82316C11.5183 6.2113 12.2978 5.79462 13.1465 5.62581C13.9951 5.457 14.8748 5.54364 15.6742 5.87478C16.4737 6.20591 17.157 6.76667 17.6377 7.48613C18.1184 8.2056 18.375 9.05146 18.375 9.91675C18.375 11.0771 17.9141 12.1899 17.0936 13.0103C16.2731 13.8308 15.1603 14.2917 14 14.2917ZM14 7.29175C13.4808 7.29175 12.9733 7.4457 12.5416 7.73414C12.11 8.02258 11.7735 8.43255 11.5748 8.91221C11.3761 9.39186 11.3242 9.91966 11.4254 10.4289C11.5267 10.9381 11.7767 11.4058 12.1438 11.7729C12.511 12.14 12.9787 12.39 13.4879 12.4913C13.9971 12.5926 14.5249 12.5406 15.0045 12.3419C15.4842 12.1433 15.8942 11.8068 16.1826 11.3751C16.471 10.9434 16.625 10.4359 16.625 9.91675C16.625 9.22056 16.3484 8.55288 15.8562 8.06059C15.3639 7.56831 14.6962 7.29175 14 7.29175Z" fill="#FFFBF8"/>
<path d="M22.1668 22.4584C21.9357 22.4554 21.7149 22.3622 21.5515 22.1988C21.388 22.0353 21.2949 21.8145 21.2918 21.5834C21.2918 19.3084 20.0552 17.7917 14.0002 17.7917C7.94516 17.7917 6.7085 19.3084 6.7085 21.5834C6.7085 21.8155 6.61631 22.038 6.45221 22.2021C6.28812 22.3662 6.06556 22.4584 5.8335 22.4584C5.60143 22.4584 5.37887 22.3662 5.21478 22.2021C5.05068 22.038 4.9585 21.8155 4.9585 21.5834C4.9585 16.0417 11.2935 16.0417 14.0002 16.0417C16.7068 16.0417 23.0418 16.0417 23.0418 21.5834C23.0388 21.8145 22.9457 22.0353 22.7822 22.1988C22.6188 22.3622 22.398 22.4554 22.1668 22.4584Z" fill="#FFFBF8"/>
<path d="M13.9949 26C12.0361 25.9983 10.1075 25.5176 8.37734 24.5998C6.64715 23.6819 5.16791 22.3549 4.06868 20.7343C2.96944 19.1138 2.28358 17.249 2.07095 15.3027C1.85831 13.3563 2.12536 11.3875 2.84878 9.56805C3.5722 7.74857 4.73003 6.13365 6.22127 4.86418C7.7125 3.59471 9.49184 2.70925 11.4041 2.28504C13.3163 1.86083 15.3033 1.91077 17.1918 2.43048C19.0803 2.95019 20.8129 3.9239 22.2384 5.26666C22.4257 5.45416 22.531 5.70833 22.531 5.97333C22.531 6.23833 22.4257 6.4925 22.2384 6.68C22.1464 6.77434 22.0365 6.84932 21.9151 6.90052C21.7937 6.95171 21.6632 6.97809 21.5314 6.97809C21.3996 6.97809 21.2692 6.95171 21.1478 6.90052C21.0264 6.84932 20.9164 6.77434 20.8245 6.68C19.1425 5.10754 16.9699 4.16236 14.6724 4.0036C12.375 3.84483 10.0929 4.48217 8.2105 5.80832C6.32808 7.13447 4.96027 9.06843 4.33735 11.2846C3.71443 13.5008 3.87443 15.8638 4.79044 17.9759C5.70644 20.0879 7.32248 21.82 9.3665 22.8805C11.4105 23.941 13.7577 24.2652 16.0128 23.7984C18.2679 23.3316 20.2933 22.1024 21.7479 20.3178C23.2025 18.5331 23.9976 16.302 23.9991 14C23.9991 13.7348 24.1045 13.4804 24.2922 13.2929C24.4798 13.1054 24.7342 13 24.9996 13C25.2649 13 25.5194 13.1054 25.707 13.2929C25.8946 13.4804 26 13.7348 26 14C26 17.1826 24.7352 20.2348 22.4838 22.4853C20.2324 24.7357 17.1788 26 13.9949 26Z" fill="#FFFBF8"/>
</svg>
