<svg width="12" height="12" viewBox="0 0 12 12" fill="none" xmlns="http://www.w3.org/2000/svg">
<path d="M10.2 1.74004C9.6502 1.1861 8.99576 0.747012 8.27472 0.448298C7.55369 0.149584 6.78046 -0.00278988 6 3.86692e-05C4.95664 0.00105678 3.93186 0.276185 3.02828 0.797871C2.12471 1.31956 1.37406 2.06949 0.851505 2.97256C0.328953 3.87563 0.0528413 4.90015 0.0508221 5.94351C0.048803 6.98687 0.320947 8.01245 0.84 8.91754L0 12L3.15 11.175C4.01981 11.659 4.99717 11.9168 5.9925 11.925C7.57474 11.9251 9.09297 11.3002 10.2167 10.1863C11.3404 9.07239 11.9787 7.55972 11.9925 5.97754C11.9872 5.18802 11.8262 4.4073 11.5186 3.68014C11.211 2.95298 10.7629 2.29369 10.2 1.74004ZM6 10.8975C5.11326 10.8981 4.24275 10.6598 3.48 10.2075L3.3 10.095L1.4325 10.59L1.9275 8.76754L1.8075 8.58004C1.16944 7.55004 0.931307 6.32178 1.13822 5.12796C1.34513 3.93414 1.98271 2.85766 2.93018 2.10246C3.87765 1.34726 5.0692 0.965782 6.2791 1.0303C7.489 1.09482 8.63322 1.60086 9.495 2.45254C10.437 3.37368 10.9763 4.63014 10.995 5.94754C10.9831 7.26448 10.4516 8.52345 9.51618 9.45048C8.58072 10.3775 7.317 10.8976 6 10.8975ZM8.7075 7.19254C8.5575 7.11754 7.83 6.75754 7.695 6.71254C7.56 6.66754 7.455 6.63754 7.3575 6.78754C7.21077 6.9886 7.05303 7.1814 6.885 7.36504C6.8025 7.47004 6.7125 7.47754 6.5625 7.36504C5.7073 7.02707 4.99477 6.4046 4.545 5.60254C4.3875 5.34004 4.695 5.35504 4.98 4.79254C5.00104 4.75199 5.01202 4.70697 5.01202 4.66129C5.01202 4.6156 5.00104 4.57059 4.98 4.53004C4.98 4.45504 4.6425 3.72004 4.5225 3.42754C4.4025 3.13504 4.2825 3.18004 4.185 3.17254H3.8925C3.81672 3.1737 3.74205 3.19103 3.6735 3.22337C3.60495 3.2557 3.5441 3.3023 3.495 3.36004C3.32672 3.52367 3.19546 3.72147 3.11007 3.94012C3.02468 4.15876 2.98715 4.39317 3 4.62754C3.04703 5.1886 3.25833 5.72336 3.6075 6.16504C4.24665 7.12186 5.12255 7.89699 6.15 8.41504C6.68886 8.72962 7.31511 8.86118 7.935 8.79004C8.14142 8.74907 8.33691 8.66513 8.50876 8.54367C8.68062 8.42221 8.82499 8.26595 8.9325 8.08504C9.0321 7.86426 9.06344 7.61876 9.0225 7.38004C8.955 7.30504 8.8575 7.26754 8.7075 7.19254Z" fill="#00A6CB"/>
</svg>
